# Blender v2.78 (sub 0) OBJ File: 'untitled.blend'
# www.blender.org
o Cylinder.004_Cylinder.006
v 2.051641 1.147892 0.038358
v 2.051641 1.095655 0.038358
v 2.061682 1.147892 0.037576
v 2.061682 1.095655 0.037576
v 2.071338 1.147892 0.035262
v 2.071338 1.095655 0.035262
v 2.080238 1.147892 0.031505
v 2.080238 1.095655 0.031505
v 2.088038 1.147892 0.026447
v 2.088038 1.095655 0.026447
v 2.094439 1.147892 0.020285
v 2.094439 1.095655 0.020285
v 2.099196 1.147892 0.013255
v 2.099196 1.095655 0.013255
v 2.102125 1.147892 0.005626
v 2.102125 1.095655 0.005626
v 2.103114 1.147892 -0.002307
v 2.103114 1.095655 -0.002307
v 2.102125 1.147892 -0.010241
v 2.102125 1.095655 -0.010241
v 2.099196 1.147892 -0.017869
v 2.099196 1.095655 -0.017869
v 2.094439 1.147892 -0.024900
v 2.094439 1.095655 -0.024900
v 2.088038 1.147892 -0.031062
v 2.088038 1.095655 -0.031062
v 2.080238 1.147892 -0.036119
v 2.080238 1.095655 -0.036119
v 2.071338 1.147892 -0.039877
v 2.071338 1.095655 -0.039877
v 2.061682 1.147892 -0.042191
v 2.061682 1.095655 -0.042191
v 2.051641 1.147892 -0.042972
v 2.051641 1.095655 -0.042972
v 2.041599 1.147892 -0.042191
v 2.041599 1.095655 -0.042191
v 2.031942 1.147892 -0.039877
v 2.031942 1.095655 -0.039877
v 2.023043 1.147892 -0.036119
v 2.023043 1.095655 -0.036119
v 2.015243 1.147892 -0.031062
v 2.015243 1.095655 -0.031062
v 2.008842 1.147892 -0.024900
v 2.008842 1.095655 -0.024900
v 2.004085 1.147892 -0.017869
v 2.004085 1.095655 -0.017869
v 2.001156 1.147892 -0.010241
v 2.001156 1.095655 -0.010241
v 2.000167 1.147892 -0.002307
v 2.000167 1.095655 -0.002307
v 2.001156 1.147892 0.005626
v 2.001156 1.095655 0.005626
v 2.004085 1.147892 0.013255
v 2.004085 1.095655 0.013255
v 2.008842 1.147892 0.020285
v 2.008842 1.095655 0.020285
v 2.015243 1.147892 0.026447
v 2.015243 1.095655 0.026447
v 2.023043 1.147892 0.031505
v 2.023043 1.095655 0.031505
v 2.031943 1.147892 0.035262
v 2.031943 1.095655 0.035262
v 2.041599 1.147892 0.037576
v 2.041599 1.095655 0.037576
vn 0.0776 0.0000 0.9970
vn 0.2331 0.0000 0.9725
vn 0.3890 0.0000 0.9212
vn 0.5440 0.0000 0.8391
vn 0.6935 0.0000 0.7204
vn 0.8282 -0.0000 0.5604
vn 0.9335 -0.0000 0.3585
vn 0.9923 -0.0000 0.1237
vn 0.9923 -0.0000 -0.1237
vn 0.9335 -0.0000 -0.3585
vn 0.8282 -0.0000 -0.5604
vn 0.6935 0.0000 -0.7204
vn 0.5440 -0.0000 -0.8391
vn 0.3890 0.0000 -0.9212
vn 0.2331 0.0000 -0.9725
vn 0.0776 0.0000 -0.9970
vn -0.0776 0.0000 -0.9970
vn -0.2330 -0.0000 -0.9725
vn -0.3890 0.0000 -0.9212
vn -0.5440 0.0000 -0.8391
vn -0.6935 -0.0000 -0.7204
vn -0.8282 0.0000 -0.5604
vn -0.9335 0.0000 -0.3585
vn -0.9923 0.0000 -0.1237
vn -0.9923 0.0000 0.1237
vn -0.9335 0.0000 0.3585
vn -0.8282 -0.0000 0.5604
vn -0.6935 -0.0000 0.7204
vn -0.5440 0.0000 0.8391
vn -0.3890 -0.0000 0.9212
vn 0.0000 -1.0000 0.0000
vn -0.2331 -0.0000 0.9725
vn -0.0776 0.0000 0.9970
vn 0.0000 1.0000 -0.0000
s off
f 2//1 3//1 1//1
f 4//2 5//2 3//2
f 6//3 7//3 5//3
f 8//4 9//4 7//4
f 10//5 11//5 9//5
f 12//6 13//6 11//6
f 14//7 15//7 13//7
f 16//8 17//8 15//8
f 18//9 19//9 17//9
f 20//10 21//10 19//10
f 22//11 23//11 21//11
f 24//12 25//12 23//12
f 26//13 27//13 25//13
f 28//14 29//14 27//14
f 30//15 31//15 29//15
f 32//16 33//16 31//16
f 34//17 35//17 33//17
f 35//18 38//18 37//18
f 38//19 39//19 37//19
f 40//20 41//20 39//20
f 41//21 44//21 43//21
f 44//22 45//22 43//22
f 46//23 47//23 45//23
f 48//24 49//24 47//24
f 50//25 51//25 49//25
f 52//26 53//26 51//26
f 54//27 55//27 53//27
f 55//28 58//28 57//28
f 58//29 59//29 57//29
f 60//30 61//30 59//30
f 26//31 8//31 28//31
f 61//32 64//32 63//32
f 64//33 1//33 63//33
f 39//34 61//34 37//34
f 2//1 4//1 3//1
f 4//2 6//2 5//2
f 6//3 8//3 7//3
f 8//4 10//4 9//4
f 10//5 12//5 11//5
f 12//6 14//6 13//6
f 14//7 16//7 15//7
f 16//8 18//8 17//8
f 18//9 20//9 19//9
f 20//10 22//10 21//10
f 22//11 24//11 23//11
f 24//12 26//12 25//12
f 26//13 28//13 27//13
f 28//14 30//14 29//14
f 30//15 32//15 31//15
f 32//16 34//16 33//16
f 34//17 36//17 35//17
f 35//18 36//18 38//18
f 38//19 40//19 39//19
f 40//20 42//20 41//20
f 41//21 42//21 44//21
f 44//22 46//22 45//22
f 46//23 48//23 47//23
f 48//24 50//24 49//24
f 50//25 52//25 51//25
f 52//26 54//26 53//26
f 54//27 56//27 55//27
f 55//28 56//28 58//28
f 58//29 60//29 59//29
f 60//30 62//30 61//30
f 6//31 4//31 32//31
f 2//31 64//31 36//31
f 62//31 60//31 38//31
f 58//31 56//31 42//31
f 54//31 52//31 48//31
f 50//31 48//31 52//31
f 46//31 44//31 54//31
f 42//31 40//31 58//31
f 38//31 36//31 64//31
f 34//31 32//31 4//31
f 30//31 28//31 6//31
f 26//31 24//31 10//31
f 22//31 20//31 16//31
f 18//31 16//31 20//31
f 14//31 12//31 22//31
f 10//31 8//31 26//31
f 4//31 2//31 34//31
f 60//31 40//31 38//31
f 54//31 48//31 46//31
f 44//31 56//31 54//31
f 36//31 34//31 2//31
f 28//31 8//31 6//31
f 22//31 16//31 14//31
f 12//31 24//31 22//31
f 64//31 62//31 38//31
f 44//31 42//31 56//31
f 32//31 30//31 6//31
f 12//31 10//31 24//31
f 58//31 40//31 60//31
f 61//32 62//32 64//32
f 64//33 2//33 1//33
f 63//34 1//34 33//34
f 3//34 5//34 31//34
f 7//34 9//34 25//34
f 11//34 13//34 23//34
f 15//34 17//34 19//34
f 19//34 21//34 15//34
f 23//34 25//34 9//34
f 27//34 29//34 7//34
f 31//34 33//34 1//34
f 35//34 37//34 63//34
f 39//34 41//34 57//34
f 43//34 45//34 55//34
f 47//34 49//34 51//34
f 51//34 53//34 47//34
f 55//34 57//34 41//34
f 59//34 61//34 39//34
f 1//34 3//34 31//34
f 9//34 11//34 23//34
f 15//34 21//34 13//34
f 25//34 27//34 7//34
f 33//34 35//34 63//34
f 41//34 43//34 55//34
f 47//34 53//34 45//34
f 57//34 59//34 39//34
f 5//34 29//34 31//34
f 21//34 23//34 13//34
f 37//34 61//34 63//34
f 53//34 55//34 45//34
f 7//34 29//34 5//34
